# xmcd
#
# Track frame offsets:
#  150
#  22220
#  47345
#  63472
#  81657
#  99780
#  128372
#  150302
#  157652
#  173030
#  194720
#  213272
#  227327
#  242765
#  257772
#  277817
#  291932
#  305692
#  323385
#
# Disc length: 4369 seconds
#
# Revision: 0
# Processed by: cddbd v1.5.1PL0 Copyright (c) Steve Scherf et al.
# Submitted via: Collectorz.com_Music_Collector 6.9
#
DISCID=f1110f13
DTITLE=Various Artist - Shut Up And Listen...
DYEAR=1997
DGENRE=Blues
TTITLE0=Mark May - Sweet Spot
TTITLE1=Cate Brothers - Damn Guilty Blues
TTITLE2=Glenn Lane - Me and The Blues
TTITLE3=Bluebirds - Run For The Levee
TTITLE4=Blind Mississipi Morris - Mean Street
TTITLE5=Radio Kings - Other Side Of Town
TTITLE6=Microwave Dave and Nukes - Road Runner
TTITLE7=Eric Culberson - Dead Cat Luck
TTITLE8=Sonny Rhodes - Hide That Wine
TTITLE9=Ace Moreland - No No Henrietta
TTITLE10=Tony Sarno - Cry Baby Blues
TTITLE11=Mark Hodgson - Big Foot Woman
TTITLE12=Homesick James - She's Gone
TTITLE13=Smokehouse - Low Down Rider
TTITLE14=Dr Hector and The Groove Injectors - Pickin' The Blues
TTITLE15=Roy Roberts - Let's Wrap Up
TTITLE16=Young Neal - Retro Man
TTITLE17=Erica Guerin - You Can't Drive Me Away
TTITLE18=Test track
EXTD=
EXTT0=
EXTT1=
EXTT2=
EXTT3=
EXTT4=
EXTT5=
EXTT6=
EXTT7=
EXTT8=
EXTT9=
EXTT10=
EXTT11=
EXTT12=
EXTT13=
EXTT14=
EXTT15=
EXTT16=
EXTT17=
EXTT18=
PLAYORDER=
